<?xml version="1.0" encoding="utf-8"?>
<!-- Generator: Adobe Illustrator 23.0.3, SVG Export Plug-In . SVG Version: 6.00 Build 0)  -->
<svg version="1.1" id="Capa_1" xmlns="http://www.w3.org/2000/svg" xmlns:xlink="http://www.w3.org/1999/xlink" x="0px" y="0px"
	 viewBox="0 0 792 612" style="enable-background:new 0 0 792 612;" xml:space="preserve">
<style type="text/css">
	.st0{fill:#070308;}
</style>
<path class="st0" d="M39.82,40.19l-2.57,238.97h123.34v-33.4H80.93V40.19C80.93,40.19,42.08,37.93,39.82,40.19z"/>
<polygon class="st0" points="643.66,279.16 767,279.16 767,245.75 687.34,245.75 684.77,37.62 643.66,37.62 "/>
<polygon class="st0" points="358.44,35.05 358.44,548.96 404.69,548.96 404.69,307.42 440.67,548.96 481.78,548.96 440.67,281.73 
	476.64,35.05 435.53,35.05 409.83,261.17 394.42,261.17 394.42,35.05 "/>
<path class="st0" d="M21.83,505.28v41.11c0,0,61.67,10.28,66.81-56.53V340.83h35.97v205.56h35.97V304.85H52.67v185.01
	C52.67,489.86,52.67,505.28,21.83,505.28z"/>
<path class="st0" d="M628.24,505.28v41.11c0,0,61.67,10.28,66.81-56.53V340.83h35.97v205.56H767V304.85H659.08v185.01
	C659.08,489.86,659.08,505.28,628.24,505.28z"/>
<path class="st0" d="M615.4,543.82L579.42,35.05h-46.25l-41.11,508.77h46.25V415.34h30.83v128.48H615.4z M533.17,384.51
	l15.42-226.12h15.42l5.14,226.12H533.17z"/>
<path class="st0" d="M282.74,37.62h-46.25c-41.11,0-35.97,71.95-35.97,71.95c-0.92-0.92,0,380.29,0,380.29s-5.14,51.39,35.97,56.53
	h46.25c0,0,35.97-5.14,35.97-56.53V109.57C318.72,32.48,282.74,37.62,282.74,37.62z M285.11,461.89c0,44.12-15.59,48.53-15.59,48.53
	h-20.04c-17.81-4.41-15.59-48.53-15.59-48.53s-0.4-327.26,0-326.47c0,0-2.23-61.76,15.59-61.76h20.04c0,0,15.59-4.41,15.59,61.76
	V461.89z"/>
</svg>
